<svg width="247" height="53" viewBox="0 0 247 53" fill="none" xmlns="http://www.w3.org/2000/svg">
<g filter="url(#filter0_d_1_4)">
<mask id="path-1-outside-1_1_4" maskUnits="userSpaceOnUse" x="-3" y="-3" width="243" height="49" fill="black">
<rect fill="white" x="-3" y="-3" width="243" height="49"/>
<path d="M7.516 6.84V19.84H12.144C14.0507 18.28 15.004 15.992 15.004 12.976C15.004 11.6933 14.744 10.48 14.224 9.336C13.7387 8.192 13.1493 7.36 12.456 6.84H7.516ZM0.496 37V0.599998H14.588C16.9453 1.64 18.8 3.23467 20.152 5.384C21.5387 7.53333 22.232 10.0467 22.232 12.924C22.232 15.7667 21.5213 18.4013 20.1 20.828C18.6787 23.2547 16.5813 24.9707 13.808 25.976H7.516V37H0.496ZM37.423 37H28.703C26.0363 34.52 24.703 31.1333 24.703 26.84C24.703 24.68 24.9963 22.8 25.583 21.2C26.1963 19.6 27.1563 18.0533 28.463 16.56H37.823C39.2096 18.16 40.1563 19.72 40.663 21.24C41.1696 22.7333 41.423 24.6 41.423 26.84C41.423 31.1333 40.0896 34.52 37.423 37ZM31.543 32.8H34.583C35.543 30.9333 36.023 28.8133 36.023 26.44C36.023 24.0667 35.5296 22.1733 34.543 20.76H31.543C30.583 22.12 30.103 24.0533 30.103 26.56C30.103 29.04 30.583 31.12 31.543 32.8ZM44.2864 37V9H49.6064V23.84H50.1664L53.9264 16.56H59.1264L54.4064 25.48L59.1664 37H53.8864L50.2064 28.04H49.6064V37H44.2864ZM69.542 20.76H66.542C66.142 21.24 65.8087 21.9067 65.542 22.76C65.302 23.6133 65.182 24.44 65.182 25.24H70.902C70.9554 24.44 70.8487 23.6133 70.582 22.76C70.3154 21.88 69.9687 21.2133 69.542 20.76ZM74.982 32.8V37H64.822C62.9554 35.7467 61.6354 34.2 60.862 32.36C60.1154 30.4933 59.742 28.6133 59.742 26.72C59.742 22.3467 61.3954 18.96 64.702 16.56H71.182C72.9687 17.8667 74.182 19.2533 74.822 20.72C75.462 22.1867 75.782 23.6667 75.782 25.16C75.782 26.6533 75.662 27.9333 75.422 29H65.462C65.542 29.6133 65.7687 30.32 66.142 31.12C66.542 31.8933 66.9687 32.4533 67.422 32.8H74.982ZM64.542 11.92L71.382 7.92L73.262 12.04L66.142 15.16L64.542 11.92ZM78.6661 9H89.3061C90.9861 9.56 92.4128 10.6 93.5861 12.12C94.7861 13.6133 95.3861 15.4533 95.3861 17.64C95.3861 21.2133 93.9728 23.84 91.1461 25.52L95.1861 37H89.5861L86.1861 26.8H84.0661V37H78.6661V9ZM84.0661 13.8V22.32H87.5061C87.9594 22.2133 88.4528 21.76 88.9861 20.96C89.5461 20.1333 89.8261 19.1733 89.8261 18.08C89.8261 16.9867 89.5861 16.0267 89.1061 15.2C88.6528 14.3733 88.1994 13.9067 87.7461 13.8H84.0661ZM109.22 37H100.5C97.8332 34.52 96.4998 31.1333 96.4998 26.84C96.4998 24.68 96.7932 22.8 97.3798 21.2C97.9932 19.6 98.9532 18.0533 100.26 16.56H109.62C111.007 18.16 111.953 19.72 112.46 21.24C112.967 22.7333 113.22 24.6 113.22 26.84C113.22 31.1333 111.887 34.52 109.22 37ZM103.34 32.8H106.38C107.34 30.9333 107.82 28.8133 107.82 26.44C107.82 24.0667 107.327 22.1733 106.34 20.76H103.34C102.38 22.12 101.9 24.0533 101.9 26.56C101.9 29.04 102.38 31.12 103.34 32.8ZM131.563 16.56V34.88C131.563 36.9067 131.297 38.5333 130.763 39.76C130.257 40.9867 129.23 42.0667 127.683 43H118.563V38.84H125.403C126.07 38.44 126.403 37.8 126.403 36.92V34.56C125.417 35.3867 123.843 35.8 121.683 35.8H118.763C116.603 33.2133 115.523 30.2133 115.523 26.8C115.523 24.3467 115.87 22.3467 116.563 20.8C117.257 19.2267 118.27 17.8133 119.603 16.56H122.563C124.297 16.56 125.67 17.12 126.683 18.24L127.403 16.56H131.563ZM126.243 20.76H122.363C121.403 22.4133 120.923 24.32 120.923 26.48C120.923 28.6133 121.337 30.3733 122.163 31.76H126.243V20.76ZM141.913 37H137.713C136.54 35.5067 135.74 34.0133 135.313 32.52C134.887 31.0267 134.673 29.16 134.673 26.92V16.56H139.993V27.32C139.993 29.7467 140.473 31.5733 141.433 32.8H145.153V16.56H150.473V37H146.273L145.553 35.56C144.54 36.52 143.327 37 141.913 37ZM163.136 20.76H160.136C159.736 21.24 159.402 21.9067 159.136 22.76C158.896 23.6133 158.776 24.44 158.776 25.24H164.496C164.549 24.44 164.442 23.6133 164.176 22.76C163.909 21.88 163.562 21.2133 163.136 20.76ZM168.576 32.8V37H158.416C156.549 35.7467 155.229 34.2 154.456 32.36C153.709 30.4933 153.336 28.6133 153.336 26.72C153.336 22.3467 154.989 18.96 158.296 16.56H164.776C166.562 17.8667 167.776 19.2533 168.416 20.72C169.056 22.1867 169.376 23.6667 169.376 25.16C169.376 26.6533 169.256 27.9333 169.016 29H159.056C159.136 29.6133 159.362 30.32 159.736 31.12C160.136 31.8933 160.562 32.4533 161.016 32.8H168.576Z"/>
<path d="M172.836 37V0.599998H179.96V30.968H190.776V37H172.836ZM193.54 37V16.56H198.82V37H193.54ZM193.54 9H198.82V14.4H193.54V9ZM213.691 37H206.291C205.011 35.96 203.998 34.5867 203.251 32.88C202.505 31.1733 202.131 29.28 202.131 27.2V16.56H207.451V27.04C207.451 29.3867 207.891 31.3067 208.771 32.8H211.211C212.091 31.2267 212.531 29.32 212.531 27.08V16.56H217.851V27C217.851 29.1067 217.478 31.04 216.731 32.8C215.985 34.56 214.971 35.96 213.691 37ZM230.202 20.76H227.202C226.802 21.24 226.469 21.9067 226.202 22.76C225.962 23.6133 225.842 24.44 225.842 25.24H231.562C231.616 24.44 231.509 23.6133 231.242 22.76C230.976 21.88 230.629 21.2133 230.202 20.76ZM235.642 32.8V37H225.482C223.616 35.7467 222.296 34.2 221.522 32.36C220.776 30.4933 220.402 28.6133 220.402 26.72C220.402 22.3467 222.056 18.96 225.362 16.56H231.842C233.629 17.8667 234.842 19.2533 235.482 20.72C236.122 22.1867 236.442 23.6667 236.442 25.16C236.442 26.6533 236.322 27.9333 236.082 29H226.122C226.202 29.6133 226.429 30.32 226.802 31.12C227.202 31.8933 227.629 32.4533 228.082 32.8H235.642Z"/>
</mask>
<path d="M7.516 6.84V19.84H12.144C14.0507 18.28 15.004 15.992 15.004 12.976C15.004 11.6933 14.744 10.48 14.224 9.336C13.7387 8.192 13.1493 7.36 12.456 6.84H7.516ZM0.496 37V0.599998H14.588C16.9453 1.64 18.8 3.23467 20.152 5.384C21.5387 7.53333 22.232 10.0467 22.232 12.924C22.232 15.7667 21.5213 18.4013 20.1 20.828C18.6787 23.2547 16.5813 24.9707 13.808 25.976H7.516V37H0.496ZM37.423 37H28.703C26.0363 34.52 24.703 31.1333 24.703 26.84C24.703 24.68 24.9963 22.8 25.583 21.2C26.1963 19.6 27.1563 18.0533 28.463 16.56H37.823C39.2096 18.16 40.1563 19.72 40.663 21.24C41.1696 22.7333 41.423 24.6 41.423 26.84C41.423 31.1333 40.0896 34.52 37.423 37ZM31.543 32.8H34.583C35.543 30.9333 36.023 28.8133 36.023 26.44C36.023 24.0667 35.5296 22.1733 34.543 20.76H31.543C30.583 22.12 30.103 24.0533 30.103 26.56C30.103 29.04 30.583 31.12 31.543 32.8ZM44.2864 37V9H49.6064V23.84H50.1664L53.9264 16.56H59.1264L54.4064 25.48L59.1664 37H53.8864L50.2064 28.04H49.6064V37H44.2864ZM69.542 20.76H66.542C66.142 21.24 65.8087 21.9067 65.542 22.76C65.302 23.6133 65.182 24.44 65.182 25.24H70.902C70.9554 24.44 70.8487 23.6133 70.582 22.76C70.3154 21.88 69.9687 21.2133 69.542 20.76ZM74.982 32.8V37H64.822C62.9554 35.7467 61.6354 34.2 60.862 32.36C60.1154 30.4933 59.742 28.6133 59.742 26.72C59.742 22.3467 61.3954 18.96 64.702 16.56H71.182C72.9687 17.8667 74.182 19.2533 74.822 20.72C75.462 22.1867 75.782 23.6667 75.782 25.16C75.782 26.6533 75.662 27.9333 75.422 29H65.462C65.542 29.6133 65.7687 30.32 66.142 31.12C66.542 31.8933 66.9687 32.4533 67.422 32.8H74.982ZM64.542 11.92L71.382 7.92L73.262 12.04L66.142 15.16L64.542 11.92ZM78.6661 9H89.3061C90.9861 9.56 92.4128 10.6 93.5861 12.12C94.7861 13.6133 95.3861 15.4533 95.3861 17.64C95.3861 21.2133 93.9728 23.84 91.1461 25.52L95.1861 37H89.5861L86.1861 26.8H84.0661V37H78.6661V9ZM84.0661 13.8V22.32H87.5061C87.9594 22.2133 88.4528 21.76 88.9861 20.96C89.5461 20.1333 89.8261 19.1733 89.8261 18.08C89.8261 16.9867 89.5861 16.0267 89.1061 15.2C88.6528 14.3733 88.1994 13.9067 87.7461 13.8H84.0661ZM109.22 37H100.5C97.8332 34.52 96.4998 31.1333 96.4998 26.84C96.4998 24.68 96.7932 22.8 97.3798 21.2C97.9932 19.6 98.9532 18.0533 100.26 16.56H109.62C111.007 18.16 111.953 19.72 112.46 21.24C112.967 22.7333 113.22 24.6 113.22 26.84C113.22 31.1333 111.887 34.52 109.22 37ZM103.34 32.8H106.38C107.34 30.9333 107.82 28.8133 107.82 26.44C107.82 24.0667 107.327 22.1733 106.34 20.76H103.34C102.38 22.12 101.9 24.0533 101.9 26.56C101.9 29.04 102.38 31.12 103.34 32.8ZM131.563 16.56V34.88C131.563 36.9067 131.297 38.5333 130.763 39.76C130.257 40.9867 129.23 42.0667 127.683 43H118.563V38.84H125.403C126.07 38.44 126.403 37.8 126.403 36.92V34.56C125.417 35.3867 123.843 35.8 121.683 35.8H118.763C116.603 33.2133 115.523 30.2133 115.523 26.8C115.523 24.3467 115.87 22.3467 116.563 20.8C117.257 19.2267 118.27 17.8133 119.603 16.56H122.563C124.297 16.56 125.67 17.12 126.683 18.24L127.403 16.56H131.563ZM126.243 20.76H122.363C121.403 22.4133 120.923 24.32 120.923 26.48C120.923 28.6133 121.337 30.3733 122.163 31.76H126.243V20.76ZM141.913 37H137.713C136.54 35.5067 135.74 34.0133 135.313 32.52C134.887 31.0267 134.673 29.16 134.673 26.92V16.56H139.993V27.32C139.993 29.7467 140.473 31.5733 141.433 32.8H145.153V16.56H150.473V37H146.273L145.553 35.56C144.54 36.52 143.327 37 141.913 37ZM163.136 20.76H160.136C159.736 21.24 159.402 21.9067 159.136 22.76C158.896 23.6133 158.776 24.44 158.776 25.24H164.496C164.549 24.44 164.442 23.6133 164.176 22.76C163.909 21.88 163.562 21.2133 163.136 20.76ZM168.576 32.8V37H158.416C156.549 35.7467 155.229 34.2 154.456 32.36C153.709 30.4933 153.336 28.6133 153.336 26.72C153.336 22.3467 154.989 18.96 158.296 16.56H164.776C166.562 17.8667 167.776 19.2533 168.416 20.72C169.056 22.1867 169.376 23.6667 169.376 25.16C169.376 26.6533 169.256 27.9333 169.016 29H159.056C159.136 29.6133 159.362 30.32 159.736 31.12C160.136 31.8933 160.562 32.4533 161.016 32.8H168.576Z" fill="url(#paint0_linear_1_4)"/>
<path d="M172.836 37V0.599998H179.96V30.968H190.776V37H172.836ZM193.54 37V16.56H198.82V37H193.54ZM193.54 9H198.82V14.4H193.54V9ZM213.691 37H206.291C205.011 35.96 203.998 34.5867 203.251 32.88C202.505 31.1733 202.131 29.28 202.131 27.2V16.56H207.451V27.04C207.451 29.3867 207.891 31.3067 208.771 32.8H211.211C212.091 31.2267 212.531 29.32 212.531 27.08V16.56H217.851V27C217.851 29.1067 217.478 31.04 216.731 32.8C215.985 34.56 214.971 35.96 213.691 37ZM230.202 20.76H227.202C226.802 21.24 226.469 21.9067 226.202 22.76C225.962 23.6133 225.842 24.44 225.842 25.24H231.562C231.616 24.44 231.509 23.6133 231.242 22.76C230.976 21.88 230.629 21.2133 230.202 20.76ZM235.642 32.8V37H225.482C223.616 35.7467 222.296 34.2 221.522 32.36C220.776 30.4933 220.402 28.6133 220.402 26.72C220.402 22.3467 222.056 18.96 225.362 16.56H231.842C233.629 17.8667 234.842 19.2533 235.482 20.72C236.122 22.1867 236.442 23.6667 236.442 25.16C236.442 26.6533 236.322 27.9333 236.082 29H226.122C226.202 29.6133 226.429 30.32 226.802 31.12C227.202 31.8933 227.629 32.4533 228.082 32.8H235.642Z" fill="#FA4040"/>
<path d="M7.516 6.84V3.84H4.516V6.84H7.516ZM7.516 19.84H4.516V22.84H7.516V19.84ZM12.144 19.84V22.84H13.2149L14.0437 22.1619L12.144 19.84ZM14.224 9.336L11.4623 10.5076L11.4771 10.5427L11.4929 10.5774L14.224 9.336ZM12.456 6.84L14.256 4.44L13.456 3.84H12.456V6.84ZM0.496 37H-2.504V40H0.496V37ZM0.496 0.599998V-2.4H-2.504V0.599998H0.496ZM14.588 0.599998L15.7989 -2.14476L15.2204 -2.4H14.588V0.599998ZM20.152 5.384L17.6126 6.98135L17.6218 6.99592L17.6311 7.01038L20.152 5.384ZM20.1 20.828L17.5114 19.3118L17.5114 19.3118L20.1 20.828ZM13.808 25.976V28.976H14.335L14.8304 28.7964L13.808 25.976ZM7.516 25.976V22.976H4.516V25.976H7.516ZM7.516 37V40H10.516V37H7.516ZM4.516 6.84V19.84H10.516V6.84H4.516ZM7.516 22.84H12.144V16.84H7.516V22.84ZM14.0437 22.1619C16.802 19.9051 18.004 16.6699 18.004 12.976H12.004C12.004 15.3141 11.2993 16.6549 10.2443 17.5181L14.0437 22.1619ZM18.004 12.976C18.004 11.2742 17.6561 9.63669 16.9551 8.09459L11.4929 10.5774C11.8319 11.3233 12.004 12.1125 12.004 12.976H18.004ZM16.9857 8.16435C16.3782 6.73238 15.5174 5.38603 14.256 4.44L10.656 9.23999C10.7813 9.33397 11.0991 9.65162 11.4623 10.5076L16.9857 8.16435ZM12.456 3.84H7.516V9.84H12.456V3.84ZM3.496 37V0.599998H-2.504V37H3.496ZM0.496 3.6H14.588V-2.4H0.496V3.6ZM13.3771 3.34475C15.1957 4.14708 16.5841 5.34626 17.6126 6.98135L22.6914 3.78664C21.0159 1.12307 18.695 -0.867078 15.7989 -2.14476L13.3771 3.34475ZM17.6311 7.01038C18.667 8.61604 19.232 10.5493 19.232 12.924H25.232C25.232 9.54407 24.4103 6.45062 22.6729 3.75762L17.6311 7.01038ZM19.232 12.924C19.232 15.2398 18.6603 17.3502 17.5114 19.3118L22.6887 22.3442C24.3824 19.4525 25.232 16.2936 25.232 12.924H19.232ZM17.5114 19.3118C16.4622 21.103 14.9356 22.3762 12.7856 23.1556L14.8304 28.7964C18.2271 27.5651 20.8951 25.4064 22.6887 22.3442L17.5114 19.3118ZM13.808 22.976H7.516V28.976H13.808V22.976ZM4.516 25.976V37H10.516V25.976H4.516ZM7.516 34H0.496V40H7.516V34ZM37.423 37V40H38.6024L39.466 39.1968L37.423 37ZM28.703 37L26.6599 39.1968L27.5236 40H28.703V37ZM25.583 21.2L22.7817 20.1262L22.7739 20.1467L22.7663 20.1672L25.583 21.2ZM28.463 16.56V13.56H27.1017L26.2052 14.5845L28.463 16.56ZM37.823 16.56L40.09 14.5952L39.1929 13.56H37.823V16.56ZM40.663 21.24L37.8169 22.1887L37.8195 22.1963L37.822 22.2039L40.663 21.24ZM31.543 32.8L28.9382 34.2884L29.802 35.8H31.543V32.8ZM34.583 32.8V35.8H36.4136L37.2508 34.172L34.583 32.8ZM34.543 20.76L37.0028 19.0427L36.1074 17.76H34.543V20.76ZM31.543 20.76V17.76H29.9885L29.0921 19.0299L31.543 20.76ZM37.423 34H28.703V40H37.423V34ZM30.746 34.8032C28.7992 32.9926 27.703 30.4623 27.703 26.84H21.703C21.703 31.8043 23.2734 36.0474 26.6599 39.1968L30.746 34.8032ZM27.703 26.84C27.703 24.9423 27.9618 23.4268 28.3996 22.2328L22.7663 20.1672C22.0308 22.1732 21.703 24.4177 21.703 26.84H27.703ZM28.3842 22.2738C28.8527 21.0518 29.6107 19.804 30.7207 18.5355L26.2052 14.5845C24.7019 16.3026 23.5399 18.1482 22.7817 20.1262L28.3842 22.2738ZM28.463 19.56H37.823V13.56H28.463V19.56ZM35.5559 18.5248C36.7633 19.918 37.4677 21.1411 37.8169 22.1887L43.509 20.2913C42.8449 18.2989 41.6559 16.402 40.09 14.5952L35.5559 18.5248ZM37.822 22.2039C38.1893 23.2863 38.423 24.8016 38.423 26.84H44.423C44.423 24.3984 44.15 22.1803 43.5039 20.2761L37.822 22.2039ZM38.423 26.84C38.423 30.4623 37.3268 32.9926 35.3799 34.8032L39.466 39.1968C42.8525 36.0474 44.423 31.8043 44.423 26.84H38.423ZM31.543 35.8H34.583V29.8H31.543V35.8ZM37.2508 34.172C38.4562 31.8283 39.023 29.2276 39.023 26.44H33.023C33.023 28.399 32.6298 30.0384 31.9151 31.428L37.2508 34.172ZM39.023 26.44C39.023 23.6779 38.4512 21.1174 37.0028 19.0427L32.0831 22.4773C32.6081 23.2293 33.023 24.4555 33.023 26.44H39.023ZM34.543 17.76H31.543V23.76H34.543V17.76ZM29.0921 19.0299C27.6357 21.0932 27.103 23.7291 27.103 26.56H33.103C33.103 24.3775 33.5303 23.1468 33.9939 22.49L29.0921 19.0299ZM27.103 26.56C27.103 29.4181 27.6561 32.0446 28.9382 34.2884L34.1477 31.3116C33.5099 30.1954 33.103 28.6619 33.103 26.56H27.103ZM44.2864 37H41.2864V40H44.2864V37ZM44.2864 9V6H41.2864V9H44.2864ZM49.6064 9H52.6064V6H49.6064V9ZM49.6064 23.84H46.6064V26.84H49.6064V23.84ZM50.1664 23.84V26.84H51.9935L52.8319 25.2167L50.1664 23.84ZM53.9264 16.56V13.56H52.0994L51.2609 15.1833L53.9264 16.56ZM59.1264 16.56L61.7781 17.9631L64.108 13.56H59.1264V16.56ZM54.4064 25.48L51.7548 24.0769L51.0955 25.3228L51.6338 26.6256L54.4064 25.48ZM59.1664 37V40H63.652L61.939 35.8544L59.1664 37ZM53.8864 37L51.1113 38.1398L51.8754 40H53.8864V37ZM50.2064 28.04L52.9815 26.9002L52.2174 25.04H50.2064V28.04ZM49.6064 28.04V25.04H46.6064V28.04H49.6064ZM49.6064 37V40H52.6064V37H49.6064ZM47.2864 37V9H41.2864V37H47.2864ZM44.2864 12H49.6064V6H44.2864V12ZM46.6064 9V23.84H52.6064V9H46.6064ZM49.6064 26.84H50.1664V20.84H49.6064V26.84ZM52.8319 25.2167L56.5919 17.9367L51.2609 15.1833L47.5009 22.4633L52.8319 25.2167ZM53.9264 19.56H59.1264V13.56H53.9264V19.56ZM56.4748 15.1569L51.7548 24.0769L57.0581 26.8831L61.7781 17.9631L56.4748 15.1569ZM51.6338 26.6256L56.3938 38.1456L61.939 35.8544L57.179 24.3344L51.6338 26.6256ZM59.1664 34H53.8864V40H59.1664V34ZM56.6615 35.8602L52.9815 26.9002L47.4313 29.1798L51.1113 38.1398L56.6615 35.8602ZM50.2064 25.04H49.6064V31.04H50.2064V25.04ZM46.6064 28.04V37H52.6064V28.04H46.6064ZM49.6064 34H44.2864V40H49.6064V34ZM69.542 20.76L71.7266 18.7039L70.8382 17.76H69.542V20.76ZM66.542 20.76V17.76H65.1369L64.2374 18.8394L66.542 20.76ZM65.542 22.76L62.6786 21.8652L62.6657 21.9063L62.6541 21.9478L65.542 22.76ZM65.182 25.24H62.182V28.24H65.182V25.24ZM70.902 25.24V28.24H73.7087L73.8954 25.4396L70.902 25.24ZM70.582 22.76L67.711 23.63L67.7147 23.6424L67.7186 23.6548L70.582 22.76ZM74.982 32.8H77.982V29.8H74.982V32.8ZM74.982 37V40H77.982V37H74.982ZM64.822 37L63.1497 39.4907L63.9083 40H64.822V37ZM60.862 32.36L58.0766 33.4742L58.0863 33.4984L58.0964 33.5224L60.862 32.36ZM64.702 16.56V13.56H63.7281L62.9398 14.1321L64.702 16.56ZM71.182 16.56L72.953 14.1385L72.162 13.56H71.182V16.56ZM74.822 20.72L72.0724 21.9198L72.0724 21.9198L74.822 20.72ZM75.422 29V32H77.822L78.3489 29.6585L75.422 29ZM65.462 29V26H62.0453L62.4872 29.388L65.462 29ZM66.142 31.12L63.4235 32.3887L63.4493 32.444L63.4774 32.4983L66.142 31.12ZM67.422 32.8L65.5997 35.1831L66.4064 35.8H67.422V32.8ZM64.542 11.92L63.0276 9.33031L60.6143 10.7416L61.8521 13.2483L64.542 11.92ZM71.382 7.92L74.1113 6.6746L72.7332 3.65451L69.8676 5.33031L71.382 7.92ZM73.262 12.04L74.4661 14.7878L77.2556 13.5654L75.9913 10.7946L73.262 12.04ZM66.142 15.16L63.4521 16.4883L64.7211 19.058L67.3461 17.9078L66.142 15.16ZM69.542 17.76H66.542V23.76H69.542V17.76ZM64.2374 18.8394C63.5021 19.7218 63.016 20.7856 62.6786 21.8652L68.4055 23.6548C68.6014 23.0277 68.782 22.7582 68.8467 22.6806L64.2374 18.8394ZM62.6541 21.9478C62.3477 23.0372 62.182 24.1376 62.182 25.24H68.182C68.182 24.7424 68.2564 24.1894 68.43 23.5722L62.6541 21.9478ZM65.182 28.24H70.902V22.24H65.182V28.24ZM73.8954 25.4396C73.976 24.2297 73.81 23.0316 73.4455 21.8652L67.7186 23.6548C67.8874 24.1951 67.9347 24.6503 67.9087 25.0404L73.8954 25.4396ZM73.4531 21.89C73.1111 20.7615 72.5854 19.6164 71.7266 18.7039L67.3574 22.8161C67.3473 22.8053 67.389 22.8468 67.4604 22.9841C67.5317 23.1212 67.62 23.3297 67.711 23.63L73.4531 21.89ZM71.982 32.8V37H77.982V32.8H71.982ZM74.982 34H64.822V40H74.982V34ZM66.4943 34.5093C65.0504 33.5399 64.1461 32.4311 63.6277 31.1976L58.0964 33.5224C59.1246 35.9689 60.8603 37.9535 63.1497 39.4907L66.4943 34.5093ZM63.6475 31.2458C63.0337 29.7113 62.742 28.2085 62.742 26.72H56.742C56.742 29.0182 57.1971 31.2753 58.0766 33.4742L63.6475 31.2458ZM62.742 26.72C62.742 23.2284 63.997 20.7786 66.4642 18.9879L62.9398 14.1321C58.7937 17.1414 56.742 21.4649 56.742 26.72H62.742ZM64.702 19.56H71.182V13.56H64.702V19.56ZM69.4111 18.9815C70.926 20.0895 71.7109 21.0915 72.0724 21.9198L77.5717 19.5202C76.6531 17.4152 75.0114 15.6439 72.953 14.1385L69.4111 18.9815ZM72.0724 21.9198C72.5593 23.0355 72.782 24.1085 72.782 25.16H78.782C78.782 23.2248 78.3648 21.3378 77.5717 19.5202L72.0724 21.9198ZM72.782 25.16C72.782 26.5063 72.6726 27.5532 72.4952 28.3415L78.3489 29.6585C78.6515 28.3135 78.782 26.8004 78.782 25.16H72.782ZM75.422 26H65.462V32H75.422V26ZM62.4872 29.388C62.62 30.4059 62.9708 31.4186 63.4235 32.3887L68.8606 29.8513C68.5666 29.2214 68.4641 28.8207 68.4368 28.612L62.4872 29.388ZM63.4774 32.4983C63.9838 33.4774 64.6591 34.4638 65.5997 35.1831L69.2444 30.4169C69.2727 30.4386 69.2358 30.4167 69.1483 30.3019C69.0616 30.188 68.9447 30.0086 68.8067 29.7417L63.4774 32.4983ZM67.422 35.8H74.982V29.8H67.422V35.8ZM66.0565 14.5097L72.8965 10.5097L69.8676 5.33031L63.0276 9.33031L66.0565 14.5097ZM68.6528 9.1654L70.5327 13.2854L75.9913 10.7946L74.1113 6.6746L68.6528 9.1654ZM72.058 9.29224L64.938 12.4122L67.3461 17.9078L74.4661 14.7878L72.058 9.29224ZM68.8319 13.8317L67.2319 10.5917L61.8521 13.2483L63.4521 16.4883L68.8319 13.8317ZM78.6661 9V6H75.6661V9H78.6661ZM89.3061 9L90.2548 6.15395L89.7929 6H89.3061V9ZM93.5861 12.12L91.2113 13.9532L91.2292 13.9763L91.2476 13.9992L93.5861 12.12ZM91.1461 25.52L89.6134 22.9411L87.5002 24.197L88.3162 26.5159L91.1461 25.52ZM95.1861 37V40H99.4222L98.016 36.0041L95.1861 37ZM89.5861 37L86.74 37.9487L87.4238 40H89.5861V37ZM86.1861 26.8L89.0321 25.8513L88.3484 23.8H86.1861V26.8ZM84.0661 26.8V23.8H81.0661V26.8H84.0661ZM84.0661 37V40H87.0661V37H84.0661ZM78.6661 37H75.6661V40H78.6661V37ZM84.0661 13.8V10.8H81.0661V13.8H84.0661ZM84.0661 22.32H81.0661V25.32H84.0661V22.32ZM87.5061 22.32V25.32H87.8543L88.1932 25.2403L87.5061 22.32ZM88.9861 20.96L86.5023 19.2775L86.4961 19.2867L86.4899 19.2959L88.9861 20.96ZM89.1061 15.2L86.4757 16.6425L86.4933 16.6747L86.5117 16.7064L89.1061 15.2ZM87.7461 13.8L88.4332 10.8797L88.0943 10.8H87.7461V13.8ZM78.6661 12H89.3061V6H78.6661V12ZM88.3574 11.846C89.4241 12.2016 90.37 12.8633 91.2113 13.9532L95.9609 10.2868C94.4555 8.33668 92.5481 6.9184 90.2548 6.15395L88.3574 11.846ZM91.2476 13.9992C91.9598 14.8855 92.3861 16.035 92.3861 17.64H98.3861C98.3861 14.8717 97.6124 12.3412 95.9246 10.2408L91.2476 13.9992ZM92.3861 17.64C92.3861 20.2661 91.4388 21.8562 89.6134 22.9411L92.6788 28.0989C96.5068 25.8238 98.3861 22.1606 98.3861 17.64H92.3861ZM88.3162 26.5159L92.3562 37.9959L98.016 36.0041L93.976 24.5241L88.3162 26.5159ZM95.1861 34H89.5861V40H95.1861V34ZM92.4321 36.0513L89.0321 25.8513L83.34 27.7487L86.74 37.9487L92.4321 36.0513ZM86.1861 23.8H84.0661V29.8H86.1861V23.8ZM81.0661 26.8V37H87.0661V26.8H81.0661ZM84.0661 34H78.6661V40H84.0661V34ZM81.6661 37V9H75.6661V37H81.6661ZM81.0661 13.8V22.32H87.0661V13.8H81.0661ZM84.0661 25.32H87.5061V19.32H84.0661V25.32ZM88.1932 25.2403C89.8572 24.8487 90.9069 23.4871 91.4822 22.6241L86.4899 19.2959C86.4014 19.4287 86.3286 19.5258 86.2728 19.5939C86.2453 19.6275 86.2238 19.6518 86.2085 19.6682C86.193 19.6848 86.1855 19.6917 86.1862 19.691C86.1868 19.6904 86.1979 19.6803 86.2198 19.6637C86.2417 19.6471 86.277 19.622 86.3262 19.5929C86.4233 19.5355 86.5889 19.4539 86.819 19.3997L88.1932 25.2403ZM91.4699 22.6425C92.3982 21.2722 92.8261 19.7137 92.8261 18.08H86.8261C86.8261 18.633 86.694 18.9945 86.5023 19.2775L91.4699 22.6425ZM92.8261 18.08C92.8261 16.5348 92.4824 15.0403 91.7005 13.6936L86.5117 16.7064C86.6897 17.013 86.8261 17.4385 86.8261 18.08H92.8261ZM91.7365 13.7575C91.2412 12.8543 90.2433 11.3057 88.4332 10.8797L87.059 16.7202C86.5483 16.6001 86.2946 16.3413 86.2743 16.3204C86.2559 16.3014 86.2692 16.312 86.3096 16.3696C86.3492 16.4261 86.4054 16.5143 86.4757 16.6425L91.7365 13.7575ZM87.7461 10.8H84.0661V16.8H87.7461V10.8ZM109.22 37V40H110.399L111.263 39.1968L109.22 37ZM100.5 37L98.4568 39.1968L99.3204 40H100.5V37ZM97.3798 21.2L94.5786 20.1262L94.5708 20.1467L94.5632 20.1672L97.3798 21.2ZM100.26 16.56V13.56H98.8985L98.0021 14.5845L100.26 16.56ZM109.62 16.56L111.887 14.5952L110.99 13.56H109.62V16.56ZM112.46 21.24L109.614 22.1887L109.616 22.1963L109.619 22.2039L112.46 21.24ZM103.34 32.8L100.735 34.2884L101.599 35.8H103.34V32.8ZM106.38 32.8V35.8H108.21L109.048 34.172L106.38 32.8ZM106.34 20.76L108.8 19.0427L107.904 17.76H106.34V20.76ZM103.34 20.76V17.76H101.785L100.889 19.0299L103.34 20.76ZM109.22 34H100.5V40H109.22V34ZM102.543 34.8032C100.596 32.9926 99.4998 30.4623 99.4998 26.84H93.4998C93.4998 31.8043 95.0703 36.0474 98.4568 39.1968L102.543 34.8032ZM99.4998 26.84C99.4998 24.9423 99.7587 23.4268 100.196 22.2328L94.5632 20.1672C93.8277 22.1732 93.4998 24.4177 93.4998 26.84H99.4998ZM100.181 22.2738C100.65 21.0518 101.408 19.804 102.518 18.5355L98.0021 14.5845C96.4987 16.3026 95.3368 18.1482 94.5786 20.1262L100.181 22.2738ZM100.26 19.56H109.62V13.56H100.26V19.56ZM107.353 18.5248C108.56 19.918 109.265 21.1411 109.614 22.1887L115.306 20.2913C114.642 18.2989 113.453 16.402 111.887 14.5952L107.353 18.5248ZM109.619 22.2039C109.986 23.2863 110.22 24.8016 110.22 26.84H116.22C116.22 24.3984 115.947 22.1803 115.301 20.2761L109.619 22.2039ZM110.22 26.84C110.22 30.4623 109.124 32.9926 107.177 34.8032L111.263 39.1968C114.649 36.0474 116.22 31.8043 116.22 26.84H110.22ZM103.34 35.8H106.38V29.8H103.34V35.8ZM109.048 34.172C110.253 31.8283 110.82 29.2276 110.82 26.44H104.82C104.82 28.399 104.427 30.0384 103.712 31.428L109.048 34.172ZM110.82 26.44C110.82 23.6779 110.248 21.1174 108.8 19.0427L103.88 22.4773C104.405 23.2293 104.82 24.4555 104.82 26.44H110.82ZM106.34 17.76H103.34V23.76H106.34V17.76ZM100.889 19.0299C99.4325 21.0932 98.8998 23.7291 98.8998 26.56H104.9C104.9 24.3775 105.327 23.1468 105.791 22.49L100.889 19.0299ZM98.8998 26.56C98.8998 29.4181 99.453 32.0446 100.735 34.2884L105.945 31.3116C105.307 30.1954 104.9 28.6619 104.9 26.56H98.8998ZM131.563 16.56H134.563V13.56H131.563V16.56ZM130.763 39.76L128.012 38.5638L128.001 38.5892L127.99 38.6147L130.763 39.76ZM127.683 43V46H128.518L129.233 45.5686L127.683 43ZM118.563 43H115.563V46H118.563V43ZM118.563 38.84V35.84H115.563V38.84H118.563ZM125.403 38.84V41.84H126.234L126.947 41.4125L125.403 38.84ZM126.403 34.56H129.403V28.1327L124.477 32.2604L126.403 34.56ZM118.763 35.8L116.461 37.7229L117.36 38.8H118.763V35.8ZM116.563 20.8L119.301 22.0272L119.305 22.0185L119.309 22.0098L116.563 20.8ZM119.603 16.56V13.56H118.415L117.549 14.3741L119.603 16.56ZM126.683 18.24L124.459 20.2527L127.598 23.7222L129.441 19.4218L126.683 18.24ZM127.403 16.56V13.56H125.425L124.646 15.3782L127.403 16.56ZM126.243 20.76H129.243V17.76H126.243V20.76ZM122.363 20.76V17.76H120.636L119.769 19.2536L122.363 20.76ZM122.163 31.76L119.586 33.2962L120.459 34.76H122.163V31.76ZM126.243 31.76V34.76H129.243V31.76H126.243ZM128.563 16.56V34.88H134.563V16.56H128.563ZM128.563 34.88C128.563 36.6868 128.319 37.8577 128.012 38.5638L133.514 40.9562C134.274 39.2089 134.563 37.1265 134.563 34.88H128.563ZM127.99 38.6147C127.803 39.0676 127.326 39.7118 126.133 40.4314L129.233 45.5686C131.134 44.4215 132.71 42.9057 133.536 40.9053L127.99 38.6147ZM127.683 40H118.563V46H127.683V40ZM121.563 43V38.84H115.563V43H121.563ZM118.563 41.84H125.403V35.84H118.563V41.84ZM126.947 41.4125C128.651 40.3901 129.403 38.6879 129.403 36.92H123.403C123.403 36.9821 123.393 36.8662 123.493 36.6742C123.601 36.4651 123.757 36.3295 123.86 36.2675L126.947 41.4125ZM129.403 36.92V34.56H123.403V36.92H129.403ZM124.477 32.2604C124.291 32.4157 123.578 32.8 121.683 32.8V38.8C124.108 38.8 126.542 38.3576 128.33 36.8596L124.477 32.2604ZM121.683 32.8H118.763V38.8H121.683V32.8ZM121.066 33.8771C119.363 31.8375 118.523 29.5204 118.523 26.8H112.523C112.523 30.9063 113.844 34.5892 116.461 37.7229L121.066 33.8771ZM118.523 26.8C118.523 24.5952 118.84 23.0553 119.301 22.0272L113.826 19.5728C112.9 21.638 112.523 24.0981 112.523 26.8H118.523ZM119.309 22.0098C119.829 20.8281 120.599 19.7415 121.658 18.7459L117.549 14.3741C115.941 15.8852 114.684 17.6252 113.818 19.5902L119.309 22.0098ZM119.603 19.56H122.563V13.56H119.603V19.56ZM122.563 19.56C123.587 19.56 124.101 19.8569 124.459 20.2527L128.908 16.2273C127.239 14.3831 125.006 13.56 122.563 13.56V19.56ZM129.441 19.4218L130.161 17.7418L124.646 15.3782L123.926 17.0582L129.441 19.4218ZM127.403 19.56H131.563V13.56H127.403V19.56ZM126.243 17.76H122.363V23.76H126.243V17.76ZM119.769 19.2536C118.51 21.4215 117.923 23.8609 117.923 26.48H123.923C123.923 24.7791 124.296 23.4052 124.958 22.2664L119.769 19.2536ZM117.923 26.48C117.923 28.9851 118.407 31.3185 119.586 33.2962L124.74 30.2238C124.266 29.4281 123.923 28.2416 123.923 26.48H117.923ZM122.163 34.76H126.243V28.76H122.163V34.76ZM129.243 31.76V20.76H123.243V31.76H129.243ZM137.713 37L135.354 38.8535L136.255 40H137.713V37ZM135.313 32.52L138.198 31.6958L138.198 31.6958L135.313 32.52ZM134.673 16.56V13.56H131.673V16.56H134.673ZM139.993 16.56H142.993V13.56H139.993V16.56ZM141.433 32.8L139.071 34.6489L139.972 35.8H141.433V32.8ZM145.153 32.8V35.8H148.153V32.8H145.153ZM145.153 16.56V13.56H142.153V16.56H145.153ZM150.473 16.56H153.473V13.56H150.473V16.56ZM150.473 37V40H153.473V37H150.473ZM146.273 37L143.59 38.3416L144.419 40H146.273V37ZM145.553 35.56L148.237 34.2184L146.427 30.5996L143.49 33.3821L145.553 35.56ZM141.913 34H137.713V40H141.913V34ZM140.072 35.1465C139.087 33.8928 138.497 32.742 138.198 31.6958L132.429 33.3442C132.983 35.2847 133.993 37.1206 135.354 38.8535L140.072 35.1465ZM138.198 31.6958C137.873 30.5601 137.673 28.9929 137.673 26.92H131.673C131.673 29.3271 131.9 31.4933 132.429 33.3442L138.198 31.6958ZM137.673 26.92V16.56H131.673V26.92H137.673ZM134.673 19.56H139.993V13.56H134.673V19.56ZM136.993 16.56V27.32H142.993V16.56H136.993ZM136.993 27.32C136.993 30.065 137.523 32.6718 139.071 34.6489L143.796 30.9511C143.423 30.4749 142.993 29.4283 142.993 27.32H136.993ZM141.433 35.8H145.153V29.8H141.433V35.8ZM148.153 32.8V16.56H142.153V32.8H148.153ZM145.153 19.56H150.473V13.56H145.153V19.56ZM147.473 16.56V37H153.473V16.56H147.473ZM150.473 34H146.273V40H150.473V34ZM148.957 35.6584L148.237 34.2184L142.87 36.9016L143.59 38.3416L148.957 35.6584ZM143.49 33.3821C143.042 33.8069 142.57 34 141.913 34V40C144.084 40 146.038 39.2331 147.617 37.7379L143.49 33.3821ZM163.136 20.76L165.32 18.7039L164.432 17.76H163.136V20.76ZM160.136 20.76V17.76H158.731L157.831 18.8394L160.136 20.76ZM159.136 22.76L156.272 21.8652L156.259 21.9063L156.248 21.9478L159.136 22.76ZM158.776 25.24H155.776V28.24H158.776V25.24ZM164.496 25.24V28.24H167.302L167.489 25.4396L164.496 25.24ZM164.176 22.76L161.305 23.63L161.308 23.6424L161.312 23.6548L164.176 22.76ZM168.576 32.8H171.576V29.8H168.576V32.8ZM168.576 37V40H171.576V37H168.576ZM158.416 37L156.743 39.4907L157.502 40H158.416V37ZM154.456 32.36L151.67 33.4742L151.68 33.4984L151.69 33.5224L154.456 32.36ZM158.296 16.56V13.56H157.322L156.534 14.1321L158.296 16.56ZM164.776 16.56L166.547 14.1385L165.756 13.56H164.776V16.56ZM168.416 20.72L165.666 21.9198L165.666 21.9198L168.416 20.72ZM169.016 29V32H171.416L171.943 29.6585L169.016 29ZM159.056 29V26H155.639L156.081 29.388L159.056 29ZM159.736 31.12L157.017 32.3887L157.043 32.444L157.071 32.4983L159.736 31.12ZM161.016 32.8L159.193 35.1831L160 35.8H161.016V32.8ZM163.136 17.76H160.136V23.76H163.136V17.76ZM157.831 18.8394C157.096 19.7218 156.61 20.7856 156.272 21.8652L161.999 23.6548C162.195 23.0277 162.376 22.7582 162.44 22.6806L157.831 18.8394ZM156.248 21.9478C155.941 23.0372 155.776 24.1376 155.776 25.24H161.776C161.776 24.7424 161.85 24.1894 162.024 23.5722L156.248 21.9478ZM158.776 28.24H164.496V22.24H158.776V28.24ZM167.489 25.4396C167.57 24.2297 167.404 23.0316 167.039 21.8652L161.312 23.6548C161.481 24.1951 161.528 24.6503 161.502 25.0404L167.489 25.4396ZM167.047 21.89C166.705 20.7615 166.179 19.6164 165.32 18.7039L160.951 22.8161C160.941 22.8053 160.983 22.8468 161.054 22.9841C161.125 23.1212 161.214 23.3297 161.305 23.63L167.047 21.89ZM165.576 32.8V37H171.576V32.8H165.576ZM168.576 34H158.416V40H168.576V34ZM160.088 34.5093C158.644 33.5399 157.74 32.4311 157.221 31.1976L151.69 33.5224C152.718 35.9689 154.454 37.9535 156.743 39.4907L160.088 34.5093ZM157.241 31.2458C156.627 29.7113 156.336 28.2085 156.336 26.72H150.336C150.336 29.0182 150.791 31.2753 151.67 33.4742L157.241 31.2458ZM156.336 26.72C156.336 23.2284 157.591 20.7786 160.058 18.9879L156.534 14.1321C152.387 17.1414 150.336 21.4649 150.336 26.72H156.336ZM158.296 19.56H164.776V13.56H158.296V19.56ZM163.005 18.9815C164.52 20.0895 165.305 21.0915 165.666 21.9198L171.165 19.5202C170.247 17.4152 168.605 15.6439 166.547 14.1385L163.005 18.9815ZM165.666 21.9198C166.153 23.0355 166.376 24.1085 166.376 25.16H172.376C172.376 23.2248 171.959 21.3378 171.165 19.5202L165.666 21.9198ZM166.376 25.16C166.376 26.5063 166.266 27.5532 166.089 28.3415L171.943 29.6585C172.245 28.3135 172.376 26.8004 172.376 25.16H166.376ZM169.016 26H159.056V32H169.016V26ZM156.081 29.388C156.214 30.4059 156.565 31.4186 157.017 32.3887L162.454 29.8513C162.16 29.2214 162.058 28.8207 162.031 28.612L156.081 29.388ZM157.071 32.4983C157.578 33.4774 158.253 34.4638 159.193 35.1831L162.838 30.4169C162.866 30.4386 162.83 30.4167 162.742 30.3019C162.655 30.188 162.538 30.0086 162.4 29.7417L157.071 32.4983ZM161.016 35.8H168.576V29.8H161.016V35.8ZM172.836 37H169.836V40H172.836V37ZM172.836 0.599998V-2.4H169.836V0.599998H172.836ZM179.96 0.599998H182.96V-2.4H179.96V0.599998ZM179.96 30.968H176.96V33.968H179.96V30.968ZM190.776 30.968H193.776V27.968H190.776V30.968ZM190.776 37V40H193.776V37H190.776ZM175.836 37V0.599998H169.836V37H175.836ZM172.836 3.6H179.96V-2.4H172.836V3.6ZM176.96 0.599998V30.968H182.96V0.599998H176.96ZM179.96 33.968H190.776V27.968H179.96V33.968ZM187.776 30.968V37H193.776V30.968H187.776ZM190.776 34H172.836V40H190.776V34ZM193.54 37H190.54V40H193.54V37ZM193.54 16.56V13.56H190.54V16.56H193.54ZM198.82 16.56H201.82V13.56H198.82V16.56ZM198.82 37V40H201.82V37H198.82ZM193.54 9V6H190.54V9H193.54ZM198.82 9H201.82V6H198.82V9ZM198.82 14.4V17.4H201.82V14.4H198.82ZM193.54 14.4H190.54V17.4H193.54V14.4ZM196.54 37V16.56H190.54V37H196.54ZM193.54 19.56H198.82V13.56H193.54V19.56ZM195.82 16.56V37H201.82V16.56H195.82ZM198.82 34H193.54V40H198.82V34ZM193.54 12H198.82V6H193.54V12ZM195.82 9V14.4H201.82V9H195.82ZM198.82 11.4H193.54V17.4H198.82V11.4ZM196.54 14.4V9H190.54V14.4H196.54ZM213.691 37V40H214.756L215.583 39.3283L213.691 37ZM206.291 37L204.399 39.3283L205.226 40H206.291V37ZM203.251 32.88L206 31.6775L206 31.6775L203.251 32.88ZM202.131 16.56V13.56H199.131V16.56H202.131ZM207.451 16.56H210.451V13.56H207.451V16.56ZM208.771 32.8L206.187 34.3231L207.057 35.8H208.771V32.8ZM211.211 32.8V35.8H212.971L213.83 34.2645L211.211 32.8ZM212.531 16.56V13.56H209.531V16.56H212.531ZM217.851 16.56H220.851V13.56H217.851V16.56ZM216.731 32.8L219.493 33.9717L219.493 33.9716L216.731 32.8ZM213.691 34H206.291V40H213.691V34ZM208.183 34.6717C207.32 33.9704 206.58 33.0033 206 31.6775L200.503 34.0825C201.416 36.17 202.703 37.9496 204.399 39.3283L208.183 34.6717ZM206 31.6775C205.437 30.392 205.131 28.9145 205.131 27.2H199.131C199.131 29.6455 199.572 31.9547 200.503 34.0825L206 31.6775ZM205.131 27.2V16.56H199.131V27.2H205.131ZM202.131 19.56H207.451V13.56H202.131V19.56ZM204.451 16.56V27.04H210.451V16.56H204.451ZM204.451 27.04C204.451 29.7397 204.955 32.2329 206.187 34.3231L211.356 31.2769C210.828 30.3804 210.451 29.0336 210.451 27.04H204.451ZM208.771 35.8H211.211V29.8H208.771V35.8ZM213.83 34.2645C215.014 32.1474 215.531 29.71 215.531 27.08H209.531C209.531 28.93 209.169 30.3059 208.593 31.3355L213.83 34.2645ZM215.531 27.08V16.56H209.531V27.08H215.531ZM212.531 19.56H217.851V13.56H212.531V19.56ZM214.851 16.56V27H220.851V16.56H214.851ZM214.851 27C214.851 28.7453 214.544 30.2751 213.97 31.6284L219.493 33.9716C220.412 31.8049 220.851 29.468 220.851 27H214.851ZM213.97 31.6283C213.383 33.0097 212.643 33.9863 211.799 34.6717L215.583 39.3283C217.3 37.9337 218.586 36.1103 219.493 33.9717L213.97 31.6283ZM230.202 20.76L232.387 18.7039L231.498 17.76H230.202V20.76ZM227.202 20.76V17.76H225.797L224.898 18.8394L227.202 20.76ZM226.202 22.76L223.339 21.8652L223.326 21.9063L223.314 21.9478L226.202 22.76ZM225.842 25.24H222.842V28.24H225.842V25.24ZM231.562 25.24V28.24H234.369L234.556 25.4396L231.562 25.24ZM231.242 22.76L228.371 23.63L228.375 23.6424L228.379 23.6548L231.242 22.76ZM235.642 32.8H238.642V29.8H235.642V32.8ZM235.642 37V40H238.642V37H235.642ZM225.482 37L223.81 39.4907L224.568 40H225.482V37ZM221.522 32.36L218.737 33.4742L218.746 33.4984L218.757 33.5224L221.522 32.36ZM225.362 16.56V13.56H224.388L223.6 14.1321L225.362 16.56ZM231.842 16.56L233.613 14.1385L232.822 13.56H231.842V16.56ZM235.482 20.72L232.733 21.9198L232.733 21.9198L235.482 20.72ZM236.082 29V32H238.482L239.009 29.6585L236.082 29ZM226.122 29V26H222.705L223.147 29.388L226.122 29ZM226.802 31.12L224.084 32.3887L224.109 32.444L224.138 32.4983L226.802 31.12ZM228.082 32.8L226.26 35.1831L227.067 35.8H228.082V32.8ZM230.202 17.76H227.202V23.76H230.202V17.76ZM224.898 18.8394C224.162 19.7218 223.676 20.7856 223.339 21.8652L229.066 23.6548C229.262 23.0277 229.442 22.7582 229.507 22.6806L224.898 18.8394ZM223.314 21.9478C223.008 23.0372 222.842 24.1376 222.842 25.24H228.842C228.842 24.7424 228.917 24.1894 229.09 23.5722L223.314 21.9478ZM225.842 28.24H231.562V22.24H225.842V28.24ZM234.556 25.4396C234.636 24.2297 234.47 23.0316 234.106 21.8652L228.379 23.6548C228.548 24.1951 228.595 24.6503 228.569 25.0404L234.556 25.4396ZM234.113 21.89C233.771 20.7615 233.246 19.6164 232.387 18.7039L228.018 22.8161C228.007 22.8053 228.049 22.8468 228.121 22.9841C228.192 23.1212 228.28 23.3297 228.371 23.63L234.113 21.89ZM232.642 32.8V37H238.642V32.8H232.642ZM235.642 34H225.482V40H235.642V34ZM227.154 34.5093C225.711 33.5399 224.806 32.4311 224.288 31.1976L218.757 33.5224C219.785 35.9689 221.52 37.9535 223.81 39.4907L227.154 34.5093ZM224.308 31.2458C223.694 29.7113 223.402 28.2085 223.402 26.72H217.402C217.402 29.0182 217.857 31.2753 218.737 33.4742L224.308 31.2458ZM223.402 26.72C223.402 23.2284 224.657 20.7786 227.124 18.9879L223.6 14.1321C219.454 17.1414 217.402 21.4649 217.402 26.72H223.402ZM225.362 19.56H231.842V13.56H225.362V19.56ZM230.071 18.9815C231.586 20.0895 232.371 21.0915 232.733 21.9198L238.232 19.5202C237.313 17.4152 235.672 15.6439 233.613 14.1385L230.071 18.9815ZM232.733 21.9198C233.219 23.0355 233.442 24.1085 233.442 25.16H239.442C239.442 23.2248 239.025 21.3378 238.232 19.5202L232.733 21.9198ZM233.442 25.16C233.442 26.5063 233.333 27.5532 233.155 28.3415L239.009 29.6585C239.312 28.3135 239.442 26.8004 239.442 25.16H233.442ZM236.082 26H226.122V32H236.082V26ZM223.147 29.388C223.28 30.4059 223.631 31.4186 224.084 32.3887L229.521 29.8513C229.227 29.2214 229.124 28.8207 229.097 28.612L223.147 29.388ZM224.138 32.4983C224.644 33.4774 225.319 34.4638 226.26 35.1831L229.905 30.4169C229.933 30.4386 229.896 30.4167 229.808 30.3019C229.722 30.188 229.605 30.0086 229.467 29.7417L224.138 32.4983ZM228.082 35.8H235.642V29.8H228.082V35.8Z" fill="black" mask="url(#path-1-outside-1_1_4)"/>
</g>
<defs>
<filter id="filter0_d_1_4" x="0.495998" y="0.599998" width="245.946" height="52.4" filterUnits="userSpaceOnUse" color-interpolation-filters="sRGB">
<feFlood flood-opacity="0" result="BackgroundImageFix"/>
<feColorMatrix in="SourceAlpha" type="matrix" values="0 0 0 0 0 0 0 0 0 0 0 0 0 0 0 0 0 0 127 0" result="hardAlpha"/>
<feOffset dx="5" dy="5"/>
<feGaussianBlur stdDeviation="2.5"/>
<feComposite in2="hardAlpha" operator="out"/>
<feColorMatrix type="matrix" values="0 0 0 0 0 0 0 0 0 0 0 0 0 0 0 0 0 0 0.25 0"/>
<feBlend mode="normal" in2="BackgroundImageFix" result="effect1_dropShadow_1_4"/>
<feBlend mode="normal" in="SourceGraphic" in2="effect1_dropShadow_1_4" result="shape"/>
</filter>
<linearGradient id="paint0_linear_1_4" x1="118" y1="-19" x2="118" y2="54" gradientUnits="userSpaceOnUse">
<stop stop-color="#6EE4FF"/>
<stop offset="0.5" stop-color="#2FA1D3"/>
<stop offset="1" stop-color="#223456"/>
</linearGradient>
</defs>
</svg>
