<svg width="24" height="29" viewBox="0 0 24 29" fill="currentColor" xmlns="http://www.w3.org/2000/svg">
<rect width="24" height="28" transform="translate(0 0.523804)" fill="white"/>
<path d="M22.5 0.523804H4.5C3.30653 0.523804 2.16193 1.01547 1.31802 1.89064C0.474106 2.76581 0 3.95279 0 5.19047V23.8571C0 25.0948 0.474106 26.2818 1.31802 27.157C2.16193 28.0321 3.30653 28.5238 4.5 28.5238H22.5C22.8978 28.5238 23.2794 28.3599 23.5607 28.0682C23.842 27.7765 24 27.3808 24 26.9682V2.07936C24 1.6668 23.842 1.27114 23.5607 0.979415C23.2794 0.687692 22.8978 0.523804 22.5 0.523804ZM4.5 25.4127C4.10218 25.4127 3.72064 25.2488 3.43934 24.9571C3.15804 24.6654 3 24.2697 3 23.8571C3 23.4446 3.15804 23.0489 3.43934 22.7572C3.72064 22.4655 4.10218 22.3016 4.5 22.3016H21V25.4127H4.5Z" fill="black"/>
</svg>
